<svg width="1600" height="900" viewBox="0 0 1600 900" fill="none" xmlns="http://www.w3.org/2000/svg">
  <defs>
    <linearGradient id="bg" x1="0" y1="0" x2="1" y2="1">
      <stop offset="0%" stop-color="#2D0B47"/>
      <stop offset="100%" stop-color="#0E001A"/>
    </linearGradient>
    <radialGradient id="glow" cx="0" cy="0" r="1" gradientUnits="userSpaceOnUse" gradientTransform="translate(1200 140) scale(420 420)">
      <stop offset="0%" stop-color="#FFFFFF" stop-opacity="0.6"/>
      <stop offset="100%" stop-color="#FFFFFF" stop-opacity="0"/>
    </radialGradient>
  </defs>
  <rect width="1600" height="900" fill="url(#bg)"/>
  <circle cx="1200" cy="140" r="420" fill="url(#glow)"/>
  <circle cx="240" cy="720" r="320" fill="#4A1D6B" fill-opacity="0.35"/>
  <rect x="980" y="180" width="420" height="520" rx="36" fill="#1E0433" fill-opacity="0.45"/>
  <path d="M1180 210c30-20 60-20 90 0l90 60c30 20 30 50 0 70l-90 60c-30 20-60 20-90 0l-90-60c-30-20-30-50 0-70l90-60Z" fill="#FFB74D" fill-opacity="0.35"/>
  <path d="M260 190c26-18 54-18 80 0l80 54c26 18 26 44 0 62l-80 54c-26 18-54 18-80 0l-80-54c-26-18-26-44 0-62l80-54Z" fill="#7BD9FF" fill-opacity="0.2"/>
</svg>
