<?xml version="1.0" encoding="UTF-8"?>
<svg version="1.1" xmlns="http://www.w3.org/2000/svg" width="1080" height="1080">
<path d="M0 0 C-0.61629447 13.89161047 -15.51309257 26.86696767 -24 37 C-25.60766353 38.95546366 -27.21236875 40.913368 -28.8125 42.875 C-31.6598163 46.35977517 -34.51425605 49.83873949 -37.375 53.3125 C-41.67660414 58.56670851 -45.85920157 63.90961222 -50.04296875 69.2578125 C-53.17781267 73.22502581 -56.36416675 77.14632697 -59.5625 81.0625 C-65.17292799 87.94621661 -70.62008473 94.93555389 -76 102 C-77.60316004 104.08410805 -79.20734526 106.16742786 -80.8125 108.25 C-85.69788342 114.60175822 -90.569796 120.96372936 -95.43359375 127.33203125 C-97.96426775 130.64435921 -100.49848664 133.95398015 -103.03515625 137.26171875 C-109.69034139 145.95791081 -116.27501977 154.67573873 -122.5859375 163.625 C-125.28782634 167.40239799 -128.07460628 171.10758635 -130.875 174.8125 C-136.09189141 181.73272984 -141.10865017 188.77453575 -146.08203125 195.87109375 C-148.75900602 199.65899513 -151.48893239 203.3981778 -154.25 207.125 C-161.01768961 216.31041516 -167.48516143 225.7028239 -173.9765625 235.08398438 C-175.82982973 237.75476427 -177.69554499 240.41689527 -179.5625 243.078125 C-198.15705571 269.60742646 -216.36355398 296.44109486 -233.703125 323.80859375 C-244.07903281 340.14696044 -255.26205305 355.75843016 -266.92578125 371.19140625 C-268.99692604 373.99583771 -270.96770644 376.87347607 -272.9375 379.75 C-276 384 -276 384 -278 384 C-278.66 385.65 -279.32 387.3 -280 389 C-286.96020911 398.74429275 -294.50508177 407.55557162 -303 416 C-304.00675781 417.01835938 -305.01351562 418.03671875 -306.05078125 419.0859375 C-311.86439042 424.94828351 -317.67744473 430.68102493 -324 436 C-324.91265625 436.77859375 -325.8253125 437.5571875 -326.765625 438.359375 C-332.35980424 443.09291128 -338.04813165 447.54801881 -344.01953125 451.8046875 C-347.59586722 454.43889565 -351.04325752 457.21083873 -354.5 460 C-371.48108506 473.66392978 -389.45917093 486.94721293 -411 492 C-413.3203125 492.804375 -413.3203125 492.804375 -415.6875 493.625 C-425.67829938 496.81047227 -436.12037863 496.21801349 -446.5 496.25 C-448.96339844 496.2809375 -448.96339844 496.2809375 -451.4765625 496.3125 C-481.36353886 496.40722893 -511.38972121 485.33268706 -535 467 C-536.62421875 465.78957031 -536.62421875 465.78957031 -538.28125 464.5546875 C-578.76000751 434.19561937 -588.95566784 389.18194933 -579 341 C-578.43478933 338.08931801 -577.87391568 335.17779189 -577.31640625 332.265625 C-574.86161502 319.47820057 -572.38195412 306.71262766 -569.5625 294 C-564.43147904 268.34489518 -567.62792815 241.10630624 -596 233 C-636.50888366 229.31737421 -660.82873393 279.54916607 -677 309 C-677.79140381 310.20438721 -678.58280762 311.40877441 -679.39819336 312.6496582 C-683.16406313 320.39377344 -684.67801089 328.38570062 -686.46875 336.77734375 C-686.87154175 338.61180557 -687.2743335 340.4462674 -687.68933105 342.33631897 C-688.97302162 348.20053425 -690.23637179 354.0689329 -691.5 359.9375 C-692.34901423 363.81993419 -693.19926241 367.70209875 -694.05078125 371.58398438 C-698.29513793 391.00930639 -702.4015752 410.44342053 -706 430 C-706.40895508 432.20502197 -706.81791016 434.41004395 -707.23925781 436.68188477 C-708.02763993 440.93748739 -708.8150027 445.19327893 -709.6015625 449.44921875 C-711.30943843 458.67603737 -713.02325199 467.90169255 -714.75 477.125 C-715.05599121 478.77604736 -715.36198242 480.42709473 -715.67724609 482.12817383 C-715.96422363 483.65595459 -716.25120117 485.18373535 -716.546875 486.7578125 C-716.93117676 488.81733154 -716.93117676 488.81733154 -717.32324219 490.91845703 C-719.38101455 500.28829928 -767.62172142 496.18958502 -777.6953125 496.203125 C-779.13663418 496.20595238 -780.57795586 496.20877975 -782.06295395 496.21169281 C-789.64385908 496.22650574 -797.22474595 496.23585594 -804.80566406 496.24023438 C-812.63506881 496.2457913 -820.46430591 496.27001816 -828.2936573 496.29820633 C-834.33452884 496.31673768 -840.37535838 496.3220325 -846.41625595 496.32357025 C-849.30700504 496.32660295 -852.19775329 496.3346521 -855.08847427 496.34775543 C-859.09443947 496.3646663 -863.09997142 496.36297619 -867.10595703 496.35644531 C-870.52456589 496.36191376 -870.52456589 496.36191376 -874.01223755 496.36749268 C-879 496 -879 496 -880 493 C-879.14880731 487.92971864 -878.20524049 482.91259911 -877.1875 477.875 C-876.87780273 476.31015869 -876.56810547 474.74531738 -876.24902344 473.13305664 C-874.34136138 463.54041421 -872.37919064 453.95911386 -870.41015625 444.37890625 C-869.96969971 442.23342285 -869.52924316 440.08793945 -869.07543945 437.87744141 C-868.21036505 433.67428563 -867.34062326 429.472087 -866.46557617 425.27099609 C-864.64939248 416.4756683 -862.90090592 407.70706356 -861.5703125 398.82421875 C-859.60685045 385.90781149 -856.80877554 373.15628484 -854.125 360.375 C-852.95760939 354.78454443 -851.79434266 349.19323845 -850.6328125 343.6015625 C-850.18594086 341.4515271 -850.18594086 341.4515271 -849.7300415 339.25805664 C-847.57919097 328.87723057 -845.48853607 318.48537546 -843.4296875 308.0859375 C-843.14038361 306.62662811 -842.85107971 305.16731873 -842.55300903 303.66378784 C-841.16180805 296.63983337 -839.77782605 289.61454651 -838.40283203 282.58740234 C-835.99005378 270.33902778 -833.41344721 258.20375304 -830.11181641 246.15722656 C-828.37333208 239.65680691 -827.00607773 233.09636773 -825.6875 226.5 C-825.42388672 225.24703125 -825.16027344 223.9940625 -824.88867188 222.703125 C-822.50338191 210.85721743 -820.43596205 199.10953187 -829.1875 189.5 C-835.99391598 181.02979344 -830.96339179 175.57108803 -824 169 C-817.27397418 165.35635263 -809.66542113 164.15640348 -802.25 162.5625 C-800.8278418 162.25538086 -799.40568359 161.94826172 -797.94042969 161.63183594 C-784.6923177 158.83327202 -771.43634487 156.70720617 -758 155 C-756.29166992 154.77570313 -756.29166992 154.77570313 -754.54882812 154.546875 C-665.97836051 143.08655794 -665.97836051 143.08655794 -656 183 C-655.56534954 191.59192764 -655.93424731 199.60787971 -658 208 C-657.26136719 207.23816406 -656.52273438 206.47632813 -655.76171875 205.69140625 C-649.16579107 198.97814313 -642.47721407 192.71667923 -635 187 C-633.95457031 186.19949219 -632.90914062 185.39898437 -631.83203125 184.57421875 C-575.44789502 142.85385098 -489.89781455 141.08142854 -439 194 C-437.7934375 195.175625 -437.7934375 195.175625 -436.5625 196.375 C-397.69100711 236.19457808 -403.84895516 281.8397906 -414.125 332 C-414.95200581 336.06992947 -415.77706831 340.14024823 -416.60153198 344.21069336 C-417.11044822 346.71971143 -417.62119985 349.22835814 -418.13406372 351.73657227 C-421.32511629 367.37798625 -422.30223238 379.90618866 -417 395 C-416.1646875 397.413125 -416.1646875 397.413125 -415.3125 399.875 C-407.25726656 414.24379478 -390.09047992 419.16232297 -375 412.9375 C-373.35 411.968125 -371.7 410.99875 -370 410 C-367.89823921 408.89126063 -365.7939129 407.78737548 -363.6875 406.6875 C-356.95679068 403.05100302 -350.49787289 399.03552106 -344 395 C-342.68 394.34 -341.36 393.68 -340 393 C-340 392.34 -340 391.68 -340 391 C-336 388 -336 388 -334 388 C-334 387.34 -334 386.68 -334 386 C-332.906875 385.071875 -331.81375 384.14375 -330.6875 383.1875 C-326.6827396 380.06106976 -326.6827396 380.06106976 -324 375 C-323.01 374.01 -322.02 373.02 -321 372 C-314.88819497 360.01145936 -317.38616187 349.69986398 -323.5 338.125 C-342.34168172 301.78994038 -373.0760162 237.29513005 -328.58984375 212.796875 C-312.16957579 204.57780725 -296.76347296 201.78519036 -287.05859375 219.5546875 C-284.72680935 224.58992592 -282.99061451 229.66890442 -281.25 234.9375 C-275.9327242 255.59586024 -275.9327242 255.59586024 -262 265 C-256.57962025 259.60180461 -252.77336103 253.1199826 -248.8125 246.625 C-238.06697744 229.16209539 -226.7809205 212.05802473 -215.5 194.9375 C-214.25863281 193.04966797 -213.01726563 191.16183594 -211.73828125 189.21679688 C-204.6086444 178.39462419 -197.3905402 167.6456144 -190 157 C-189.29327148 155.97672607 -188.58654297 154.95345215 -187.85839844 153.89916992 C-180.06649067 142.6186213 -172.1933659 131.40318772 -164.1328125 120.3125 C-162.03435205 117.42384621 -159.9458796 114.52791166 -157.8671875 111.625 C-149.47085863 99.90727322 -140.77811686 88.43368162 -132 77 C-131.0821875 75.7934375 -130.164375 74.586875 -129.21875 73.34375 C-123.63273612 66.01664088 -117.85958092 58.8543701 -112.03125 51.71875 C-109.62505297 48.76681756 -107.24530072 45.79333272 -104.875 42.8125 C-86.79059941 20.35284121 -32.54352212 -32.54352212 0 0 Z " fill="#FFFFFF" transform="translate(980,294)"/>
</svg>
